<?xml version="1.0" encoding="iso-8859-1"?>
<!-- Generator: Adobe Illustrator 19.0.0, SVG Export Plug-In . SVG Version: 6.00 Build 0)  -->
<svg version="1.1" id="Capa_1" xmlns="http://www.w3.org/2000/svg" xmlns:xlink="http://www.w3.org/1999/xlink" x="0px" y="0px"
	 viewBox="0 0 511.999 511.999" style="enable-background:new 0 0 511.999 511.999;" xml:space="preserve">
<path style="fill:#FF9711;" d="M502.903,311.904c-6.927,1.385-14.089,2.116-21.423,2.116c-14.483,0-28.299-2.84-40.934-7.982
	c-2.3,1.198-4.72,2.239-7.255,3.092c-26.325,8.862-54.848-5.294-63.71-31.618c-5.328-15.827-2.327-32.443,6.628-45.109
	c-2.215-8.647-3.394-17.71-3.394-27.049c0-11.831,1.897-23.218,5.394-33.879c-13.722-3.59-28.12-5.509-42.968-5.509
	c-93.486,0-169.273,75.786-169.273,169.273S241.753,504.51,335.239,504.51s169.273-75.786,169.273-169.273
	C504.511,327.319,503.954,319.533,502.903,311.904z"/>
<g>
	<circle style="fill:#CB7400;" cx="287.165" cy="288.992" r="25.136"/>
	<circle style="fill:#CB7400;" cx="333.752" cy="420.645" r="21.456"/>
	<circle style="fill:#CB7400;" cx="433.318" cy="359.906" r="19.599"/>
</g>
<path style="fill:#FF9711;" d="M165.966,335.238c0-93.486,75.786-169.273,169.273-169.273c3.516,0,7.004,0.12,10.467,0.332
	C340.297,77.687,266.734,7.491,176.764,7.491C83.278,7.491,7.491,83.277,7.491,176.763c0,89.97,70.196,163.533,158.806,168.941
	C166.085,342.241,165.966,338.754,165.966,335.238z"/>
<g>
	<circle style="fill:#CB7400;" cx="111.631" cy="156.28" r="23.189"/>
	<circle style="fill:#CB7400;" cx="234.066" cy="141.959" r="18.318"/>
</g>
<g>
	<circle style="fill:#CC2A00;" cx="91.657" cy="156.28" r="23.189"/>
	<circle style="fill:#CC2A00;" cx="214.093" cy="141.959" r="18.318"/>
	<circle style="fill:#CC2A00;" cx="155.532" cy="275.35" r="15.572"/>
	<circle style="fill:#CC2A00;" cx="267.191" cy="288.992" r="25.136"/>
	<circle style="fill:#CC2A00;" cx="313.779" cy="420.645" r="21.456"/>
	<circle style="fill:#CC2A00;" cx="413.345" cy="359.906" r="19.599"/>
</g>
<g>
	<path style="fill:#CB7400;" d="M205.912,335.238c0-86.711,65.203-158.183,149.253-168.088c-6.537-0.769-13.183-1.184-19.927-1.184
		c-93.486,0-169.273,75.786-169.273,169.273S241.752,504.51,335.238,504.51c6.759,0,13.421-0.408,19.973-1.178
		C271.139,493.447,205.912,421.965,205.912,335.238z"/>
	<path style="fill:#CB7400;" d="M502.969,312.455c-0.025-0.183-0.042-0.368-0.067-0.55c-0.482,0.097-0.969,0.182-1.454,0.273
		C501.955,312.27,502.46,312.367,502.969,312.455z"/>
	<path style="fill:#CB7400;" d="M459.184,311.718c-6.439-1.345-12.672-3.253-18.638-5.68c-1.083,0.564-2.193,1.09-3.328,1.581
		C444.048,310.577,451.546,312.025,459.184,311.718z"/>
	<path style="fill:#CB7400;" d="M47.438,176.763c0-86.735,65.238-158.221,149.32-168.096c-6.558-0.772-13.229-1.176-19.994-1.176
		C83.278,7.491,7.491,83.277,7.491,176.763c0,89.97,70.196,163.533,158.806,168.941c-0.15-2.455-0.234-4.926-0.282-7.407
		C97.297,316.756,47.438,252.588,47.438,176.763z"/>
</g>
<g>
	<path style="fill:#AA2300;" d="M88.441,156.278c0-9.232,5.395-17.202,13.203-20.933c-3.025-1.446-6.41-2.257-9.987-2.257
		c-12.807,0-23.19,10.382-23.19,23.19c0,12.807,10.382,23.19,23.19,23.19c3.576,0,6.962-0.811,9.987-2.257
		C93.835,173.479,88.441,165.509,88.441,156.278z"/>
	<path style="fill:#AA2300;" d="M215.744,141.957c0-6.43,3.32-12.077,8.332-15.345c-2.874-1.874-6.3-2.973-9.987-2.973
		c-10.117,0-18.318,8.202-18.318,18.318c0,10.117,8.202,18.319,18.318,18.319c3.687,0,7.112-1.1,9.987-2.973
		C219.064,154.034,215.744,148.388,215.744,141.957z"/>
	<path style="fill:#AA2300;" d="M154.94,275.349c0-5.884,3.266-11.003,8.082-13.652c-2.223-1.222-4.775-1.92-7.49-1.92
		c-8.6,0-15.572,6.972-15.572,15.572s6.972,15.572,15.572,15.572c2.715,0,5.267-0.698,7.49-1.92
		C158.207,286.352,154.94,281.233,154.94,275.349z"/>
	<path style="fill:#AA2300;" d="M263.337,297.009c-4.203-12.486,1.958-25.957,13.842-31.085c-5.506-2.387-11.878-2.824-18.013-0.759
		c-13.157,4.43-20.233,18.687-15.804,31.844c4.43,13.157,18.687,20.233,31.844,15.804c0.671-0.226,1.322-0.483,1.96-0.759
		C270.866,309.321,265.701,304.032,263.337,297.009z"/>
	<path style="fill:#AA2300;" d="M312.298,420.646c0-8.242,4.653-15.389,11.47-18.982c-2.984-1.573-6.378-2.474-9.987-2.474
		c-11.85,0-21.456,9.606-21.456,21.456s9.606,21.456,21.456,21.456c3.608,0,7.003-0.901,9.987-2.474
		C316.951,436.034,312.298,428.888,312.298,420.646z"/>
	<path style="fill:#AA2300;" d="M413.722,359.91c0-7.171,3.864-13.425,9.612-16.841c-2.927-1.74-6.334-2.757-9.987-2.757
		c-10.824,0-19.599,8.774-19.599,19.599c0,10.824,8.774,19.599,19.599,19.599c3.652,0,7.06-1.018,9.987-2.757
		C417.585,373.335,413.722,367.082,413.722,359.91z"/>
</g>
<g>
	<path style="fill:#FFFFFF;" d="M300.878,119.151l13.58-6.324c-17.034-36.571-48.151-65.098-86.204-78.863l-5.094,14.087l0,0
		C257.436,60.441,285.546,86.212,300.878,119.151z"/>
	<path style="fill:#FFFFFF;" d="M218.255,30.739c-5.024-1.43-10.151-2.607-15.366-3.517l-2.575,14.757
		c4.698,0.82,9.314,1.879,13.839,3.168L218.255,30.739z"/>
	<path style="fill:#FFFFFF;" d="M176.764,39.947c4.786,0,9.516,0.248,14.178,0.731l1.544-14.9
		c-5.174-0.536-10.419-0.811-15.722-0.81L176.764,39.947L176.764,39.947z"/>
	<path style="fill:#FFFFFF;" d="M223.907,232.149l10.988,10.181l0,0c3.219-3.474,6.616-6.781,10.175-9.907l-9.885-11.256
		C231.24,224.632,227.476,228.298,223.907,232.149z"/>
	<path style="fill:#FFFFFF;" d="M252.395,226.423L252.395,226.423c23.029-17.57,51.71-27.998,82.843-28.002v-14.98
		c-34.507-0.003-66.418,11.594-91.931,31.073L252.395,226.423z"/>
	<path style="fill:#FFFFFF;" d="M207.8,252.84l12.567,8.152l0,0c2.582-3.979,5.364-7.816,8.333-11.499l-11.66-9.404
		C213.748,244.171,210.662,248.426,207.8,252.84z"/>
</g>
<g>
	<path style="fill:#1D1D1F;" d="M63.11,252.854l-0.03-0.04l-12.393,8.319l-0.04,0.03l0.02,0.04
		c15.259,22.739,36.341,40.955,60.958,52.689l0.04,0.02l6.421-13.482l0.04-0.07h-0.07C95.876,289.795,76.871,273.367,63.11,252.854z
		"/>
	<path style="fill:#1D1D1F;" d="M382.162,479.61c4.975-1.622,9.923-3.523,14.702-5.654l-6.098-13.683
		c-4.307,1.919-8.762,3.633-13.245,5.094L382.162,479.61z"/>
	<path style="fill:#1D1D1F;" d="M419.104,443.258l9.198,11.823c4.127-3.21,8.135-6.674,11.913-10.295l-10.366-10.814
		C426.441,437.239,422.825,440.363,419.104,443.258z"/>
	<path style="fill:#1D1D1F;" d="M399.266,456.12l7.035,13.226c4.615-2.455,9.158-5.181,13.501-8.104l-8.363-12.428
		C407.521,451.449,403.426,453.908,399.266,456.12z"/>
	<path style="fill:#1D1D1F;" d="M457.52,425.089l-12.061-8.885c-2.798,3.798-5.826,7.493-9.001,10.983l11.08,10.08
		C451.058,433.398,454.416,429.3,457.52,425.089z"/>
	<path style="fill:#1D1D1F;" d="M113.352,134.583c-5.792-5.792-13.502-8.988-21.691-8.988c-8.199,0-15.909,3.196-21.701,8.988
		c-5.792,5.792-8.978,13.502-8.988,21.691c0.01,8.199,3.196,15.899,8.988,21.691c5.792,5.802,13.502,8.988,21.701,8.988
		c8.189,0,15.899-3.186,21.691-8.988c5.792-5.792,8.978-13.492,8.988-21.691C122.33,148.085,119.144,140.375,113.352,134.583z
		 M91.661,171.973c-8.648-0.01-15.689-7.061-15.709-15.699c0.02-8.638,7.061-15.679,15.709-15.699
		c8.638,0.02,15.679,7.061,15.699,15.699C107.34,164.912,100.3,171.963,91.661,171.973z"/>
	<path style="fill:#1D1D1F;" d="M71.159,107.769c-6.262,2.646-11.894,6.441-16.728,11.275c-4.834,4.843-8.638,10.466-11.285,16.738
		c-2.746,6.491-4.134,13.392-4.144,20.492c0.01,9.258,2.447,18.365,7.061,26.345c4.474,7.74,10.895,14.251,18.555,18.845l0.04,0.02
		l7.7-12.843l-0.04-0.03c-11.485-6.901-18.335-18.984-18.335-32.337c0.01-10.056,3.925-19.514,11.035-26.634
		c7.13-7.11,16.588-11.025,26.644-11.035l0.05-14.93l-0.05-0.05C84.551,103.625,77.65,105.023,71.159,107.769z"/>
	<path style="fill:#1D1D1F;" d="M188.282,141.953c0,6.901,2.686,13.382,7.56,18.255c4.873,4.873,11.355,7.55,18.245,7.56
		c6.901-0.01,13.382-2.686,18.245-7.56c4.873-4.873,7.56-11.355,7.56-18.255c0-6.891-2.686-13.372-7.56-18.245
		c-4.863-4.873-11.345-7.56-18.245-7.56c-6.891,0-13.372,2.686-18.245,7.56C190.968,128.581,188.282,135.063,188.282,141.953z
		 M214.087,131.128c5.962,0.01,10.815,4.863,10.835,10.825c-0.02,5.962-4.873,10.815-10.835,10.835
		c-5.962-0.02-10.815-4.873-10.825-10.835C203.271,135.991,208.125,131.138,214.087,131.128z"/>
	<path style="fill:#1D1D1F;" d="M244.047,154.506c-5.093,12.094-16.837,19.913-29.93,19.913h-0.08v14.98h0.05
		c9.537,0,18.725-2.816,26.584-8.139c7.68-5.203,13.622-12.443,17.187-20.962l0.02-0.05l-13.771-5.772l-0.04-0.02L244.047,154.506z"
		/>
	<path style="fill:#1D1D1F;" d="M267.166,321.622h0.01c3.545,0,7.041-0.579,10.416-1.708c13.302-4.494,22.23-16.927,22.23-30.928
		c0-3.535-0.578-7.041-1.718-10.406l-0.01-0.05c-4.504-13.262-16.907-22.18-30.888-22.18h-0.021c-3.535,0-7.041,0.579-10.416,1.718
		c-13.292,4.484-22.23,16.917-22.22,30.918c0,3.535,0.579,7.041,1.718,10.416C240.751,312.694,253.164,321.622,267.166,321.622z
		 M261.553,272.268c1.838-0.619,3.735-0.939,5.632-0.939c7.6,0.01,14.321,4.844,16.728,12.024l0.01,0.04
		c0.609,1.818,0.919,3.705,0.919,5.592c-0.01,7.6-4.844,14.321-12.024,16.728c-1.838,0.619-3.724,0.929-5.632,0.929
		c-7.6-0.01-14.321-4.833-16.728-12.024c-0.609-1.828-0.929-3.725-0.929-5.632C249.539,281.386,254.373,274.665,261.553,272.268z"/>
	<path style="fill:#1D1D1F;" d="M232.402,308.07l-13.142,7.21l0.03,0.04c9.587,17.467,27.942,28.322,47.886,28.332
		c5.922,0,11.794-0.969,17.447-2.866l0.05-0.02l-4.764-14.151l-0.021-0.04l-0.04,0.01c-4.113,1.388-8.379,2.087-12.672,2.087h-0.01
		c-14.491,0-27.803-7.879-34.743-20.552L232.402,308.07z"/>
	<path style="fill:#1D1D1F;" d="M313.783,391.698c-7.74,0-15.01,3.016-20.473,8.479c-5.463,5.463-8.479,12.733-8.479,20.472
		c0,7.73,3.017,15,8.479,20.462c5.463,5.463,12.733,8.479,20.473,8.479c7.73,0,15-3.016,20.462-8.479
		c5.463-5.463,8.478-12.733,8.478-20.462c0-7.74-3.016-15.01-8.478-20.472C328.782,394.714,321.513,391.698,313.783,391.698z
		 M313.783,434.61c-7.69-0.01-13.961-6.282-13.971-13.961c0.01-7.69,6.282-13.961,13.971-13.971
		c7.68,0.01,13.951,6.282,13.96,13.971C327.734,428.328,321.463,434.6,313.783,434.61z"/>
	<path style="fill:#1D1D1F;" d="M277.791,456.63c4.674,4.674,10.116,8.349,16.178,10.905c6.272,2.656,12.943,4.005,19.813,4.005
		c6.871,0,13.532-1.348,19.813-4.005c6.053-2.557,11.495-6.232,16.168-10.905c4.674-4.674,8.348-10.116,10.905-16.178
		c2.656-6.272,4.005-12.933,4.005-19.803v-0.05h-14.98v0.05c0,9.577-3.735,18.595-10.516,25.396
		c-6.801,6.781-15.819,10.516-25.396,10.516c-9.587,0-18.605-3.735-25.406-10.516c-6.77-6.801-10.506-15.819-10.515-25.396
		l-14.93-0.05l-0.05,0.05c0,6.871,1.348,13.532,4.005,19.803C269.452,446.514,273.118,451.957,277.791,456.63z"/>
	<path style="fill:#1D1D1F;" d="M413.349,332.817c-7.24,0.01-14.042,2.826-19.155,7.939c-5.112,5.113-7.938,11.914-7.938,19.154
		c0,7.24,2.826,14.041,7.938,19.154c5.113,5.113,11.915,7.929,19.155,7.929c7.23,0,14.031-2.816,19.144-7.929
		c5.123-5.113,7.939-11.914,7.939-19.154c0-7.24-2.816-14.041-7.939-19.154C427.38,335.643,420.579,332.827,413.349,332.817z
		 M413.349,372.014c-6.672-0.01-12.104-5.443-12.114-12.104c0.01-6.661,5.442-12.094,12.114-12.114
		c6.661,0.02,12.093,5.453,12.104,12.114C425.442,366.571,420.01,372.004,413.349,372.014z"/>
	<path style="fill:#1D1D1F;" d="M335.237,497.02c-89.207,0-161.783-72.575-161.783-161.783
		c-0.001-33.84,10.334-66.245,29.889-93.714l-12.204-8.687c-6.576,9.239-12.195,18.988-16.827,29.136
		c-0.739-1.032-1.563-2.012-2.479-2.926c-4.354-4.354-10.136-6.761-16.298-6.761c-6.162,0-11.954,2.407-16.308,6.761
		c-4.354,4.344-6.751,10.136-6.761,16.298c0.01,6.162,2.407,11.954,6.761,16.308c4.354,4.354,10.146,6.751,16.308,6.761
		c2.417-0.004,4.771-0.387,7.007-1.1c-2.692,12.344-4.069,25.038-4.068,37.924c0,0.76,0.019,1.515,0.029,2.273
		C77.379,328.399,14.98,259.333,14.98,176.759c0-2.275,0.047-4.589,0.144-6.877l-14.967-0.627c-0.105,2.498-0.158,5.025-0.157,7.507
		c0,91.063,69.471,167.085,159.332,175.887c8.775,89.324,84.313,159.35,175.905,159.35c27.888,0,54.574-6.311,79.316-18.755
		l-6.73-13.383C385.188,491.247,360.766,497.02,335.237,497.02z M155.536,283.433c-4.454-0.01-8.079-3.635-8.089-8.089
		c0.01-4.444,3.635-8.069,8.089-8.079c4.444,0.01,8.069,3.635,8.079,8.079C163.605,279.798,159.98,283.423,155.536,283.433z"/>
	<path style="fill:#1D1D1F;" d="M510.321,310.88l-1.087-7.881l-7.803,1.561c-6.538,1.308-13.252,1.97-19.953,1.97
		c-13.175,0-25.997-2.5-38.11-7.429l-3.212-1.307l-3.074,1.602c-1.991,1.038-4.073,1.924-6.183,2.635
		c-4.436,1.493-9.034,2.249-13.665,2.249c-18.389,0-34.688-11.717-40.559-29.16c-1.493-4.434-2.25-9.026-2.25-13.649
		c0-8.887,2.729-17.445,7.893-24.746l2.001-2.828l-0.86-3.355c-2.097-8.189-3.16-16.665-3.16-25.191
		c0-10.772,1.689-21.385,5.02-31.546l2.481-7.565l-7.702-2.015c-8.991-2.353-18.175-3.985-27.452-4.895
		C343.848,69.471,267.826,0,176.763,0c-43.182,0-84.759,15.741-117.07,44.322C27.665,72.653,6.997,111.493,1.495,153.687
		l14.854,1.937C26.806,75.444,95.769,14.98,176.763,14.98c82.571,0,151.639,62.402,160.748,143.53
		c-0.758-0.01-1.515-0.036-2.274-0.036c-51.798,0-100.815,22.613-134.48,62.04l11.393,9.728
		c30.815-36.089,75.678-56.787,123.088-56.787c11.322,0,22.588,1.175,33.59,3.497c-2.328,9.254-3.505,18.775-3.505,28.401
		c0,8.647,0.954,17.252,2.84,25.63c-5.712,9.179-8.715,19.65-8.715,30.491c0,6.251,1.02,12.451,3.033,18.428
		c7.924,23.542,29.928,39.36,54.755,39.36c6.259,0,12.463-1.02,18.443-3.033c1.751-0.589,3.484-1.268,5.182-2.027
		c12.983,4.852,26.629,7.309,40.617,7.309c4.971,0,9.949-0.318,14.875-0.949c0.442,4.896,0.667,9.808,0.667,14.676
		c-0.003,56.426-28.679,107.878-76.709,137.633l7.888,12.734c25.129-15.568,46.137-37.368,60.753-63.042
		c15.076-26.482,23.044-56.678,23.046-87.325C512,327.149,511.434,318.954,510.321,310.88z"/>
</g>
<g>
</g>
<g>
</g>
<g>
</g>
<g>
</g>
<g>
</g>
<g>
</g>
<g>
</g>
<g>
</g>
<g>
</g>
<g>
</g>
<g>
</g>
<g>
</g>
<g>
</g>
<g>
</g>
<g>
</g>
</svg>
