<svg id="Capa_1" enable-background="new 0 0 512 512" height="512" viewBox="0 0 512 512" width="512" xmlns="http://www.w3.org/2000/svg"><g><g><path d="m256 7.5c-137.24 0-248.5 111.26-248.5 248.5s111.26 248.5 248.5 248.5 248.5-111.26 248.5-248.5-111.26-248.5-248.5-248.5zm0 391.1c-78.75 0-142.6-63.85-142.6-142.6s63.85-142.6 142.6-142.6 142.6 63.85 142.6 142.6-63.85 142.6-142.6 142.6z" fill="#f9efda"/><path d="m38.24 256c0-132.08 103.05-240.09 233.13-248.03-5.08-.31-10.21-.47-15.37-.47-137.24 0-248.5 111.26-248.5 248.5s111.26 248.5 248.5 248.5c5.16 0 10.29-.16 15.37-.47-130.08-7.94-233.13-115.95-233.13-248.03z" fill="#f6e4c1"/><path d="m465.31 187.99c-6.88-21.18-34.64-31.92-47.47-49.56-12.97-17.81-14.69-47.48-32.5-60.44-17.64-12.83-46.32-5.39-67.51-12.27-20.44-6.64-39.17-29.74-61.83-29.74s-41.39 23.1-61.83 29.74c-21.19 6.88-49.87-.56-67.51 12.27-17.81 12.96-19.53 42.63-32.5 60.44-12.83 17.64-40.59 28.38-47.47 49.56-6.63 20.45 9.29 45.35 9.29 68.01s-15.92 47.56-9.29 68.01c6.88 21.18 34.64 31.92 47.47 49.56 12.97 17.81 14.69 47.48 32.5 60.44 17.64 12.83 46.32 5.39 67.51 12.27 20.44 6.64 39.17 29.74 61.83 29.74s41.39-23.1 61.83-29.74c21.19-6.88 49.87.56 67.51-12.27 17.81-12.96 19.53-42.63 32.5-60.44 12.83-17.64 40.59-28.38 47.47-49.56 6.63-20.45-9.29-45.35-9.29-68.01s15.92-47.56 9.29-68.01zm-209.31 163.96c-52.99 0-95.95-42.96-95.95-95.95s42.96-95.95 95.95-95.95 95.95 42.96 95.95 95.95-42.96 95.95-95.95 95.95z" fill="#bc95e2"/><path d="m122.591 373.57c-12.83-17.64-40.59-28.38-47.47-49.56-6.63-20.45 9.29-45.35 9.29-68.01s-15.92-47.56-9.29-68.01c6.88-21.18 34.64-31.92 47.47-49.56 12.97-17.81 14.69-47.48 32.5-60.44 6.82-4.96 15.3-7.64 24.35-9.46-18.43 1.79-38.98-.57-52.78 9.46-17.81 12.96-19.53 42.63-32.5 60.44-12.83 17.64-40.59 28.38-47.47 49.56-6.63 20.45 9.29 45.35 9.29 68.01s-15.92 47.56-9.29 68.01c6.88 21.18 34.64 31.92 47.47 49.56 12.97 17.81 14.69 47.48 32.5 60.44 13.78 10.02 34.3 7.68 52.72 9.45-9.03-1.82-17.48-4.5-24.29-9.45-17.81-12.96-19.53-42.63-32.5-60.44z" fill="#ac80dd"/><path d="m284.43 160.05c-4.83 0-9.58.36-14.21 1.05 46.25 6.87 81.73 46.74 81.73 94.9s-35.48 88.03-81.73 94.9c4.63.69 9.38 1.05 14.21 1.05 52.99 0 95.95-42.96 95.95-95.95s-42.959-95.95-95.95-95.95z" fill="#ac80dd"/><g><path d="m266.513 132.434c-7.322 2.387-15.192-1.613-17.579-8.935l-12.383-37.985c-2.387-7.322 1.613-15.192 8.935-17.579 7.322-2.387 15.192 1.614 17.579 8.935l12.383 37.985c2.387 7.322-1.613 15.192-8.935 17.579z" fill="#ffe07d"/><path d="m271.978 129.11c-1.487 1.473-3.338 2.634-5.468 3.329-7.321 2.387-15.191-1.622-17.577-8.942l-12.383-37.983c-2.387-7.321 1.612-15.188 8.933-17.574 2.13-.694 4.309-.848 6.376-.543-3.648 3.587-5.177 9.061-3.481 14.261l12.383 37.983c1.695 5.201 6.156 8.721 11.217 9.469z" fill="#ffd064"/></g><g><path d="m84.395 379.147c-7.454-1.936-11.926-9.548-9.99-17.001l10.044-38.669c1.936-7.454 9.548-11.926 17.002-9.99 7.454 1.936 11.926 9.548 9.99 17.001l-10.044 38.669c-1.937 7.453-9.548 11.926-17.002 9.99z" fill="#ffe07d"/><path d="m90.79 379.293c-2.046.44-4.231.42-6.399-.144-7.453-1.936-11.921-9.554-9.985-17.007l10.044-38.667c1.936-7.453 9.544-11.923 16.997-9.988 2.168.563 4.087 1.609 5.663 2.979-5.006 1.055-9.244 4.841-10.619 10.136l-10.045 38.668c-1.376 5.295.484 10.665 4.344 14.023z" fill="#ffd064"/></g><g><path d="m126.902 214.77c-7.651.872-14.561-4.624-15.433-12.275l-4.524-39.695c-.872-7.651 4.624-14.561 12.275-15.433 7.651-.872 14.561 4.624 15.433 12.275l4.524 39.695c.873 7.652-4.623 14.561-12.275 15.433z" fill="#ffe07d"/><path d="m132.923 212.608c-1.752 1.146-3.798 1.912-6.023 2.166-7.65.872-14.558-4.631-15.43-12.282l-4.524-39.693c-.872-7.651 4.621-14.557 12.272-15.429 2.226-.254 4.392.033 6.355.745-4.292 2.784-6.886 7.84-6.267 13.275l4.524 39.693c.618 5.436 4.284 9.779 9.093 11.525z" fill="#ffd064"/></g><g><path d="m408.215 410.498c-2.245 7.366-10.037 11.518-17.403 9.273l-38.217-11.647c-7.366-2.245-11.518-10.037-9.273-17.403 2.245-7.366 10.037-11.518 17.403-9.273l38.217 11.647c7.366 2.245 11.518 10.036 9.273 17.403z" fill="#ffe07d"/><path d="m408.628 404.115c.354 2.063.243 4.245-.41 6.388-2.245 7.365-10.042 11.512-17.408 9.268l-38.215-11.647c-7.366-2.245-11.515-10.033-9.27-17.398.653-2.143 1.778-4.016 3.213-5.534.846 5.046 4.452 9.438 9.684 11.033l38.215 11.647c5.231 1.593 10.674-.041 14.191-3.757z" fill="#ffd064"/></g><g><path d="m248.513 435.857c-5.741 5.133-14.556 4.641-19.689-1.1l-26.631-29.782c-5.133-5.741-4.641-14.556 1.1-19.689 5.741-5.133 14.556-4.641 19.689 1.1l26.631 29.782c5.133 5.74 4.641 14.555-1.1 19.689z" fill="#ffe07d"/><path d="m252.177 430.613c-.767 1.947-1.994 3.755-3.664 5.249-5.74 5.133-14.557 4.633-19.69-1.107l-26.629-29.78c-5.133-5.74-4.64-14.551 1.1-19.683 1.67-1.493 3.603-2.511 5.617-3.064-1.895 4.752-1.09 10.378 2.556 14.456l26.629 29.78c3.646 4.076 9.147 5.503 14.081 4.149z" fill="#ffd064"/></g><g><path d="m397.299 179.59c-5.445-5.445-5.445-14.274 0-19.719l28.251-28.251c5.445-5.445 14.274-5.445 19.719 0 5.445 5.445 5.445 14.274 0 19.719l-28.251 28.251c-5.445 5.446-14.274 5.446-19.719 0z" fill="#ffe07d"/><path d="m402.738 182.956c-1.987-.658-3.861-1.782-5.445-3.366-5.445-5.445-5.438-14.276.007-19.721l28.249-28.249c5.445-5.445 14.269-5.445 19.714 0 1.584 1.584 2.708 3.458 3.373 5.438-4.851-1.627-10.423-.509-14.291 3.359l-28.249 28.249c-3.867 3.867-4.984 9.439-3.358 14.29z" fill="#ffd064"/></g><g><path d="m391.378 306.15c-7.272-2.535-11.112-10.485-8.577-17.756l13.15-37.726c2.535-7.272 10.484-11.112 17.756-8.577 7.272 2.535 11.112 10.484 8.577 17.756l-13.15 37.726c-2.534 7.271-10.484 11.111-17.756 8.577z" fill="#ffe07d"/><path d="m397.74 306.814c-2.075.272-4.251.075-6.367-.663-7.271-2.534-11.106-10.49-8.572-17.761l13.149-37.724c2.534-7.271 10.481-11.109 17.751-8.575 2.115.737 3.943 1.935 5.402 3.429-5.075.645-9.607 4.075-11.407 9.24l-13.149 37.724c-1.799 5.167-.381 10.67 3.193 14.33z" fill="#ffd064"/></g></g><g><path d="m438.795 76.779c-2.9-2.958-7.648-3.005-10.606-.105-2.958 2.899-3.005 7.648-.105 10.606 44.441 45.331 68.916 105.25 68.916 168.72 0 64.372-25.069 124.892-70.588 170.412s-106.04 70.588-170.412 70.588-124.892-25.069-170.412-70.588-70.588-106.04-70.588-170.412 25.069-124.892 70.588-170.412 106.04-70.588 170.412-70.588c55.408 0 107.501 18.283 150.649 52.872 3.232 2.591 7.952 2.071 10.543-1.161 2.591-3.231 2.071-7.952-1.161-10.543-22.229-17.82-47.042-31.702-73.747-41.26-27.638-9.892-56.668-14.908-86.284-14.908-68.379 0-132.666 26.629-181.019 74.981-48.352 48.353-74.981 112.64-74.981 181.019s26.629 132.666 74.981 181.019c48.353 48.352 112.64 74.981 181.019 74.981s132.666-26.629 181.019-74.981c48.352-48.353 74.981-112.64 74.981-181.019 0-67.42-25.998-131.069-73.205-179.221z"/><path d="m152.547 256c0 57.044 46.409 103.453 103.453 103.453s103.453-46.409 103.453-103.453-46.409-103.453-103.453-103.453-103.453 46.409-103.453 103.453zm103.453-88.453c48.773 0 88.453 39.68 88.453 88.453s-39.68 88.453-88.453 88.453-88.453-39.68-88.453-88.453 39.68-88.453 88.453-88.453z"/><path d="m282.579 112.531-12.384-37.985c-3.665-11.242-15.793-17.405-27.034-13.741-5.446 1.775-9.875 5.565-12.47 10.671s-3.047 10.917-1.271 16.363l12.383 37.984c1.775 5.446 5.565 9.875 10.671 12.47 3.056 1.553 6.363 2.338 9.694 2.338 2.236 0 4.482-.354 6.669-1.067 11.242-3.664 17.407-15.791 13.742-27.033zm-18.391 12.772c-3.377 1.103-7.022-.75-8.124-4.129l-12.384-37.985c-.533-1.637-.397-3.383.382-4.917s2.11-2.673 3.747-3.207c.661-.215 1.332-.318 1.993-.318 2.714 0 5.245 1.73 6.131 4.447l12.383 37.984c1.103 3.38-.75 7.024-4.128 8.125z"/><path d="m134.147 144.438c-4.482-3.566-10.084-5.171-15.776-4.523-5.691.648-10.789 3.475-14.354 7.958-3.565 4.482-5.172 10.085-4.523 15.776l4.524 39.695c1.245 10.927 10.543 19.017 21.291 19.017.807 0 1.623-.045 2.443-.139 5.691-.648 10.789-3.475 14.354-7.957 3.566-4.483 5.172-10.086 4.523-15.777l-4.524-39.696c-.648-5.691-3.475-10.789-7.958-14.354zm-8.093 62.881c-3.536.398-6.73-2.143-7.133-5.673l-4.524-39.695c-.195-1.71.288-3.394 1.359-4.741s2.603-2.196 4.313-2.391c.247-.028.492-.042.735-.042 3.229 0 6.023 2.431 6.397 5.714l4.524 39.696c.403 3.53-2.142 6.729-5.671 7.132z"/><path d="m228.573 381.386c-7.883-8.813-21.465-9.572-30.279-1.691-8.814 7.882-9.572 21.465-1.691 30.279l26.631 29.783c3.818 4.27 9.07 6.797 14.79 7.116.409.023.816.034 1.223.034 5.276 0 10.302-1.915 14.267-5.459 4.27-3.818 6.797-9.07 7.116-14.789s-1.607-11.22-5.425-15.489zm17.079 44.436c-.096 1.718-.855 3.296-2.138 4.444-2.649 2.369-6.73 2.14-9.099-.508l-26.631-29.783c-2.368-2.648-2.14-6.73.508-9.099 1.227-1.098 2.762-1.637 4.292-1.637 1.771 0 3.536.724 4.807 2.145l26.631 29.783c1.147 1.283 1.727 2.936 1.63 4.655z"/><path d="m456.853 141.479c0-5.728-2.23-11.112-6.281-15.163-8.362-8.361-21.966-8.359-30.326 0l-.583.583c-2.599-5.17-4.768-11.033-7.009-17.141-5.209-14.197-10.595-28.877-22.903-37.834-12.182-8.86-27.741-9.472-42.788-10.063-9.789-.384-19.035-.748-26.816-3.274-7.299-2.371-14.711-7.374-22.56-12.67-12.702-8.573-25.837-17.437-41.587-17.437s-28.885 8.864-41.588 17.437c-7.848 5.296-15.261 10.299-22.558 12.67-7.782 2.526-17.028 2.89-26.817 3.274-15.047.591-30.606 1.203-42.79 10.064-12.307 8.956-17.693 23.636-22.902 37.833-3.351 9.132-6.515 17.757-11.25 24.26-4.638 6.376-11.797 11.974-19.376 17.9-11.992 9.376-24.392 19.071-29.163 33.759-4.56 14.065-.375 28.909 3.672 43.264 2.701 9.579 5.252 18.626 5.252 27.059s-2.551 17.48-5.252 27.059c-4.047 14.355-8.232 29.199-3.67 43.27 4.605 14.164 16.308 23.688 27.891 32.764l-.303 1.167c-1.44 5.544-.635 11.317 2.267 16.255s7.553 8.451 13.097 9.891c1.798.467 3.619.698 5.428.698 1.713 0 3.414-.218 5.075-.628 2.305 4.825 4.28 10.177 6.328 15.76 5.209 14.198 10.597 28.88 22.909 37.839 12.171 8.853 27.947 9.478 41.865 10.029.102.004.202.006.302.006 4.005 0 7.329-3.166 7.489-7.203.164-4.139-3.059-7.627-7.197-7.791-12.362-.49-25.145-.996-33.634-7.17-8.625-6.276-13.009-18.225-17.651-30.876-2.366-6.45-4.806-13.064-7.927-19.182 1.427-2.054 2.514-4.352 3.161-6.844l10.044-38.669c1.44-5.544.635-11.317-2.267-16.255s-7.553-8.451-13.097-9.891c-5.545-1.439-11.316-.634-16.255 2.267-4.938 2.902-8.451 7.553-9.891 13.097l-5.615 21.618c-8.12-6.606-15.076-13.289-17.75-21.512-3.158-9.742.242-21.801 3.841-34.567 2.859-10.139 5.815-20.623 5.815-31.13s-2.956-20.991-5.815-31.13c-3.599-12.766-6.999-24.825-3.842-34.563 3.354-10.324 13.447-18.216 24.134-26.572 8.06-6.302 16.394-12.818 22.266-20.89 5.967-8.194 9.646-18.222 13.204-27.919 4.641-12.65 9.025-24.598 17.645-30.87 8.499-6.182 21.155-6.679 34.554-7.206 10.376-.408 21.106-.83 30.862-3.997 9.306-3.023 17.953-8.859 26.316-14.502 11.328-7.65 22.03-14.873 33.193-14.873s21.865 7.223 33.197 14.871c8.363 5.644 17.01 11.479 26.317 14.503 9.754 3.167 20.484 3.589 30.86 3.997 13.399.526 26.055 1.024 34.552 7.205 8.621 6.273 13.005 18.221 17.646 30.871 2.878 7.845 5.858 15.89 10.042 23.022l-16.62 16.62c-4.05 4.05-6.281 9.435-6.281 15.163s2.23 11.113 6.281 15.163 9.435 6.281 15.163 6.281 11.113-2.23 15.163-6.281l16.994-16.994c8.592 6.899 16.071 13.808 18.86 22.404 3.158 9.742-.242 21.801-3.841 34.567-2.859 10.139-5.815 20.623-5.815 31.13s2.956 20.991 5.815 31.13c3.599 12.766 6.999 24.825 3.842 34.563-3.354 10.324-13.448 18.216-24.134 26.572-8.06 6.302-16.394 12.818-22.271 20.897-3.752 5.166-6.564 10.963-9.146 17.296-.493-.191-.987-.382-1.497-.538l-38.217-11.647c-11.31-3.445-23.317 2.95-26.764 14.261s2.95 23.317 14.261 26.764l33.4 10.179c-.929.915-1.885 1.743-2.88 2.467-8.499 6.182-21.155 6.679-34.554 7.206-10.376.408-21.106.83-30.862 3.997-9.306 3.023-17.953 8.859-26.316 14.503-11.332 7.647-22.034 14.871-33.197 14.871s-21.865-7.223-33.197-14.871c-8.301-5.602-16.882-11.393-26.109-14.435-3.508-1.286-7.503.216-9.25 3.626-1.888 3.687-.431 8.206 3.256 10.094.212.109.44.211.669.303.159.064.319.122.482.175 7.298 2.371 14.711 7.374 22.56 12.67 12.703 8.573 25.837 17.437 41.588 17.437s28.885-8.864 41.588-17.437c7.848-5.296 15.261-10.299 22.558-12.67 7.782-2.526 17.028-2.89 26.817-3.274 15.047-.591 30.606-1.203 42.792-10.066 4.566-3.325 8.511-7.712 12.002-13.333 1.093-.373 2.165-.828 3.204-1.381 5.055-2.693 8.758-7.194 10.428-12.673 1.537-5.043 1.158-10.353-1.009-15.109 2.858-7.604 5.696-14.322 9.525-19.594 4.638-6.376 11.797-11.974 19.376-17.9 11.992-9.376 24.393-19.071 29.163-33.759 4.56-14.065.375-28.909-3.672-43.264-2.701-9.579-5.252-18.626-5.252-27.059s2.551-17.48 5.252-27.059c4.047-14.355 8.232-29.199 3.672-43.266-3.877-11.948-12.812-20.587-22.461-28.443l.59-.59c4.053-4.053 6.283-9.437 6.283-15.166zm-375.189 222.552 10.044-38.669c.433-1.666 1.488-3.064 2.972-3.936 1.003-.589 2.12-.891 3.253-.891.543 0 1.091.069 1.631.21 1.666.433 3.064 1.488 3.936 2.972s1.114 3.219.681 4.884l-10.044 38.669c-.433 1.666-1.488 3.064-2.972 3.936-1.483.872-3.219 1.116-4.884.681-1.666-.433-3.064-1.488-3.936-2.972-.872-1.483-1.114-3.218-.681-4.884zm268.832 28.876c.846-2.775 3.406-4.566 6.167-4.566.621 0 1.251.091 1.875.281l38.217 11.647c1.646.501 2.999 1.615 3.809 3.133.809 1.519.979 3.262.477 4.909-1.035 3.398-4.644 5.32-8.042 4.285l-38.217-11.647c-3.4-1.035-5.322-4.643-4.286-8.042zm61.219-218.62c-2.512 2.511-6.6 2.512-9.113 0-1.217-1.217-1.887-2.835-1.887-4.557s.67-3.339 1.887-4.557l28.25-28.25c1.256-1.256 2.906-1.884 4.557-1.884 1.65 0 3.3.628 4.557 1.884 2.512 2.512 2.512 6.6 0 9.113z"/><path d="m395.949 314.428c8.87 0 17.187-5.549 20.268-14.387l13.15-37.727c1.885-5.409 1.552-11.228-.94-16.385-2.491-5.158-6.842-9.036-12.25-10.921s-11.227-1.552-16.386.939c-5.158 2.492-9.036 6.842-10.921 12.251l-13.15 37.726c-3.892 11.166 2.026 23.416 13.191 27.307 2.327.812 4.701 1.197 7.038 1.197zm-6.066-23.566 13.15-37.726c.566-1.625 1.732-2.933 3.282-3.682.888-.429 1.84-.645 2.797-.645.715 0 1.432.12 2.127.362 1.625.566 2.932 1.732 3.681 3.282s.849 3.299.282 4.924l-13.15 37.726c-1.17 3.354-4.85 5.131-8.206 3.964-1.625-.566-2.933-1.732-3.681-3.282s-.849-3.298-.282-4.923z"/></g></g></svg>